<?xml version="1.0" encoding="iso-8859-1"?>
<!-- Uploaded to: SVG Repo, www.svgrepo.com, Generator: SVG Repo Mixer Tools -->
<svg version="1.1" id="Layer_1" xmlns="http://www.w3.org/2000/svg" xmlns:xlink="http://www.w3.org/1999/xlink" 
	 viewBox="0 0 511.992 511.992" xml:space="preserve">
<path style="fill:#7F4545;" d="M289.433,217.854c-64.546,0-91.529-42.578-92.678-44.437l18.163-11.187
	c0.031,0.047,5.906,9.203,18.555,17.937c16.828,11.625,37.172,17.093,60.491,16.281l0.734,21.328
	C292.917,217.823,291.167,217.854,289.433,217.854z"/>
<path style="fill:#A85D5D;" d="M340.619,150.262c-13.875-8.984-33.437-18.922-58.123-29.531
	c-38.883-16.703-78.797-29.984-84.155-31.75l-9.148-4.203l-9.539,19.078c0.297,0.172,29.796,16.171,59.937,34.905
	c47.874,29.781,58.983,42.484,61.515,46.437c-2.797,3.968-14.016,16.453-57.632,47.577c-27.859,19.875-55.03,37.406-55.296,37.578
	l-30.447,19.641h124.702l2.922-2.328c0.781-0.625,19.265-15.422,38.686-34.562c27.594-27.218,42.234-48.343,44.766-64.562
	C371.338,172.246,353.932,158.887,340.619,150.262z"/>
<path style="fill:#48CFAD;" d="M66.952,268.65l48.757,85.326H396.26l48.748-85.326H66.952z"/>
<path style="fill:#A0D468;" d="M438.976,100.841c-1.797-3.516-5.984-11.734-15.921-11.734c-1.844,0-3.469,0.281-5.031,0.562
	c-1.5,0.25-2.938,0.5-4.781,0.562c0.031-0.391,0.062-0.75,0.062-1.078c0.156-1.969,0.297-4.188,0.203-6.547
	c-0.516-13.187-4.172-16.421-14.702-23.781c-7.906-5.531-26.516-7.609-54-10.14c-8.188-0.766-15.906-1.469-19.312-2.125
	c-0.406-0.453-1-1.375-1.469-2.078c-4.719-7-11.124-14.484-28.015-14.484c-3.453,0-7.172,0.312-11.39,0.953
	c-17.969,2.703-45.516,4.406-71.875,4.406c-14.991,0-28.358-0.547-37.64-1.578c-2.672-0.281-5.305-0.422-7.844-0.422
	c-16.023,0-26.413,5.828-33.991,10.094c-3.719,2.078-6.93,3.891-9.586,4.312c-8.633,1.344-15.57,6.172-20.633,14.359
	c-3.688,5.953-5.891,12.921-7.836,19.046l-0.633,1.953c-6.344,19.797-3.867,37.5,6.984,49.874
	c6.805,7.75,14.922,11.188,21.445,13.953c5.227,2.188,9.344,3.938,12.297,7.297c7.742,8.797,21.437,10.547,34.687,12.25
	c6.289,0.812,15.797,2.016,18.32,3.922c13.155,9.968,38.897,15.937,68.874,15.937c25.602,0,31.835-2.984,43.163-11.5
	c1.734-1.297,3.516-2.656,5.703-4.14c12.28-8.469,58.452-25.156,69.843-25.266c4.938,1.594,10.938,1.922,15.219,1.922
	c6.125,0,26.812-0.797,35.437-11.219c1.031-1.234,2.281-2.562,3.624-3.953c3.094-3.203,6.594-6.843,8.875-11.39
	C442.336,114.278,442.305,107.388,438.976,100.841z"/>
<path style="opacity:0.2;fill:#FFFFFF;enable-background:new    ;" d="M94.584,104.466l0.633-1.969
	c1.945-6.125,4.148-13.078,7.836-19.047c5.062-8.188,12-13.015,20.633-14.359c2.656-0.406,5.867-2.219,9.586-4.312
	c7.578-4.266,17.968-10.093,33.991-10.093c2.539,0,5.172,0.156,7.844,0.438c9.281,1,22.648,1.562,37.64,1.562
	c26.359,0,53.906-1.688,71.875-4.406c4.218-0.625,7.937-0.938,11.39-0.938c16.891,0,23.296,7.468,28.015,14.468
	c0.469,0.703,1.062,1.625,1.469,2.094c3.406,0.641,11.125,1.359,19.312,2.109c27.484,2.547,46.094,4.609,54,10.14
	c10.53,7.375,14.187,10.594,14.702,23.766c0.094,2.391-0.047,4.609-0.203,6.578c0,0.312-0.031,0.688-0.062,1.062
	c1.844-0.047,3.281-0.297,4.781-0.562c1.562-0.266,3.188-0.547,5.031-0.547c9.39,0,13.655,7.343,15.593,11.109
	c0.141-0.25,0.281-0.484,0.406-0.75c3.281-6.531,3.25-13.421-0.078-19.968c-1.797-3.516-5.984-11.734-15.921-11.734
	c-1.844,0-3.469,0.281-5.031,0.562c-1.5,0.25-2.938,0.5-4.781,0.562c0.031-0.391,0.062-0.75,0.062-1.078
	c0.156-1.969,0.297-4.188,0.203-6.547c-0.516-13.187-4.172-16.421-14.702-23.781c-7.906-5.531-26.516-7.609-54-10.14
	c-8.188-0.766-15.906-1.469-19.312-2.125c-0.406-0.453-1-1.375-1.469-2.078c-4.719-7-11.124-14.484-28.015-14.484
	c-3.453,0-7.172,0.312-11.39,0.953c-17.969,2.703-45.516,4.406-71.875,4.406c-14.991,0-28.358-0.547-37.64-1.578
	c-2.672-0.281-5.305-0.422-7.844-0.422c-16.023,0-26.413,5.828-33.991,10.094c-3.719,2.078-6.93,3.891-9.586,4.312
	c-8.633,1.344-15.57,6.172-20.633,14.359c-3.688,5.953-5.891,12.921-7.836,19.046l-0.633,1.953
	c-3.57,11.156-4.352,21.641-2.406,30.891C92.756,110.888,93.553,107.7,94.584,104.466z"/>
<rect x="95.996" y="439.314" style="fill:#656D78;" width="320" height="21.327"/>
<g>
	<rect x="21.336" y="396.664" style="fill:#434A54;" width="85.33" height="85.33"/>
	<rect x="405.336" y="396.664" style="fill:#434A54;" width="85.31" height="85.33"/>
</g>
<rect x="21.336" y="332.644" style="fill:#656D78;" width="469.31" height="85.33"/>
<path style="fill:#434A54;" d="M501.32,353.976H10.672C4.781,353.976,0,349.21,0,343.321c0-5.891,4.781-10.672,10.672-10.672H501.32
	c5.891,0,10.672,4.781,10.672,10.672C511.992,349.211,507.211,353.976,501.32,353.976z"/>
</svg>